<svg id="vitamin-shot" enable-background="new 0 0 300 300" height="512" viewBox="0 0 300 300" width="512" xmlns="http://www.w3.org/2000/svg"><g><circle cx="125.936" cy="124" fill="#edebdc" r="90"/><g fill="#4c241d"><path d="m111.936 54c-2.211 0-4-1.791-4-4v-8c0-2.209 1.789-4 4-4s4 1.791 4 4v8c0 2.209-1.789 4-4 4z"/><path d="m111.936 78c-2.211 0-4-1.791-4-4v-8c0-2.209 1.789-4 4-4s4 1.791 4 4v8c0 2.209-1.789 4-4 4z"/><path d="m103.936 62h-8c-2.211 0-4-1.791-4-4s1.789-4 4-4h8c2.211 0 4 1.791 4 4s-1.789 4-4 4z"/><path d="m127.936 62h-8c-2.211 0-4-1.791-4-4s1.789-4 4-4h8c2.211 0 4 1.791 4 4s-1.789 4-4 4z"/></g><path d="m39.936 242h220v20h-220z" fill="#bf7e68"/><path d="m263.936 246h-228c-2.211 0-4-1.791-4-4s1.789-4 4-4h228c2.211 0 4 1.791 4 4s-1.789 4-4 4z" fill="#4c241d"/><path d="m263.936 266h-228c-2.211 0-4-1.791-4-4s1.789-4 4-4h228c2.211 0 4 1.791 4 4s-1.789 4-4 4z" fill="#4c241d"/><g><path d="m193.836 153.483c-4.352 2.513-2.061 14.631 5.12 27.067.292.505.587 1.003.885 1.493 5.298 8.702 8.095 42.679 8.095 52.867v7.09h28v-7.09c0-10.188 2.797-44.165 8.095-52.867.298-.49.594-.988.885-1.493 7.18-12.436 9.472-24.554 5.12-27.067-3.06-1.767-8.59 1.699-14.1 8.227v-.978c3.04-3.15 6.175-7.324 8.98-12.183 7.18-12.436 9.472-24.554 5.12-27.067-2.148-1.24-5.515.1-9.237 3.262.039-.066.079-.128.117-.195 7.18-12.436 9.472-24.554 5.12-27.067-2.625-1.516-7.07.827-11.758 5.64-2.36-12.57-7-21.123-12.342-21.123s-9.982 8.553-12.342 21.123c-4.688-4.812-9.132-7.155-11.758-5.64-4.352 2.513-2.061 14.631 5.12 27.067.038.066.078.129.117.195-3.721-3.162-7.089-4.502-9.237-3.261-4.352 2.513-2.061 14.631 5.12 27.067 2.805 4.859 5.94 9.032 8.98 12.183v.978c-5.51-6.529-11.04-9.994-14.1-8.228z" fill="#77a052"/><path d="m235.936 246h-28c-2.211 0-4-1.791-4-4v-7.09c0-11.088-2.992-43.365-7.512-50.787-.309-.506-.617-1.031-.926-1.562-3.699-6.404-6.309-12.979-7.359-18.521-1.676-8.857 1.086-12.512 3.695-14.02.883-.51 1.828-.828 2.82-.955-3.25-5.92-5.547-11.912-6.516-17.025-1.676-8.857 1.086-12.512 3.695-14.02.816-.471 1.82-.85 3.027-.967-1.273-3.186-2.195-6.23-2.723-9.014-1.676-8.857 1.086-12.512 3.695-14.02 1.949-1.123 5.699-2.047 11.352 1.787 3.216-11.406 8.443-17.806 14.752-17.806s11.535 6.4 14.75 17.807c5.645-3.832 9.402-2.908 11.352-1.787 2.609 1.508 5.371 5.162 3.695 14.02-.531 2.795-1.457 5.852-2.715 9.014 1.203.119 2.207.498 3.023.969 2.605 1.506 5.367 5.16 3.691 14.018-.969 5.113-3.266 11.105-6.516 17.025.992.127 1.934.445 2.82.955 2.609 1.508 5.371 5.162 3.695 14.02-1.051 5.543-3.66 12.117-7.352 18.512-.316.541-.625 1.066-.941 1.584-4.512 7.41-7.504 39.688-7.504 50.775v7.088c.002 2.209-1.787 4-3.998 4zm-24-8h20v-3.09c0-7.182 2.262-44.404 8.676-54.947l.848-1.422c6.59-11.42 7.328-19.609 6.535-21.5-1.012.168-4.203 1.562-9 7.25-1.086 1.285-2.863 1.754-4.43 1.178-1.578-.578-2.629-2.078-2.629-3.758v-.979c0-1.035.402-2.031 1.121-2.777 2.953-3.061 5.855-7.004 8.395-11.404 6.598-11.426 7.336-19.613 6.543-21.508-.641.111-2.215.719-4.605 2.75-1.484 1.264-3.664 1.271-5.164.016-1.492-1.256-1.863-3.408-.875-5.09 6.695-11.59 7.438-19.785 6.645-21.678-.863.139-3.23 1.158-6.848 4.873-1.043 1.072-2.605 1.463-4.023 1.039-1.43-.434-2.5-1.625-2.773-3.092-2.514-13.363-6.83-17.861-8.416-17.861s-5.902 4.498-8.414 17.861c-.273 1.467-1.344 2.658-2.773 3.092-1.422.424-2.98.033-4.023-1.039-3.617-3.713-5.984-4.734-6.848-4.873-.793 1.891-.055 10.08 6.543 21.51.973 1.686.648 3.922-.844 5.168-1.496 1.25-3.605 1.336-5.094.074-2.391-2.033-3.965-2.639-4.605-2.75-.793 1.895-.055 10.082 6.543 21.508 2.539 4.4 5.441 8.344 8.395 11.404.719.746 1.121 1.742 1.121 2.777v.979c0 1.68-1.051 3.18-2.629 3.758-1.562.574-3.344.107-4.43-1.178-4.797-5.688-7.988-7.082-9-7.25-.793 1.891-.055 10.08 6.543 21.51l.832 1.4c6.422 10.555 8.684 47.777 8.684 54.959v3.09z" fill="#4c241d"/></g><g><path d="m129.836 153.483c-4.352 2.513-2.061 14.631 5.12 27.067.292.505.587 1.003.885 1.493 5.298 8.702 8.095 42.679 8.095 52.867v7.09h28v-7.09c0-10.188 2.797-44.165 8.095-52.867.298-.49.594-.988.885-1.493 7.18-12.436 9.472-24.554 5.12-27.067-3.06-1.767-8.59 1.699-14.1 8.227v-.978c3.04-3.15 6.175-7.324 8.98-12.183 7.18-12.436 9.472-24.554 5.12-27.067-2.148-1.24-5.515.1-9.237 3.262.039-.066.079-.128.117-.195 7.18-12.436 9.472-24.554 5.12-27.067-2.625-1.516-7.07.827-11.758 5.64-2.36-12.57-7-21.123-12.342-21.123s-9.982 8.553-12.342 21.123c-4.688-4.812-9.132-7.155-11.758-5.64-4.352 2.513-2.061 14.631 5.12 27.067.038.066.078.129.117.195-3.721-3.162-7.089-4.502-9.237-3.261-4.352 2.513-2.061 14.631 5.12 27.067 2.805 4.859 5.94 9.032 8.98 12.183v.978c-5.51-6.529-11.04-9.994-14.1-8.228z" fill="#77a052"/><path d="m171.936 246h-28c-2.211 0-4-1.791-4-4v-7.09c0-11.088-2.992-43.365-7.512-50.787-.309-.506-.617-1.031-.926-1.562-3.699-6.404-6.309-12.979-7.359-18.521-1.676-8.857 1.086-12.512 3.695-14.02.883-.51 1.828-.828 2.82-.955-3.25-5.92-5.547-11.912-6.516-17.025-1.676-8.857 1.086-12.512 3.695-14.02.816-.471 1.82-.85 3.027-.967-1.273-3.186-2.195-6.23-2.723-9.014-1.676-8.857 1.086-12.512 3.695-14.02 1.949-1.123 5.703-2.047 11.352 1.787 3.216-11.406 8.443-17.806 14.752-17.806s11.535 6.4 14.75 17.807c5.641-3.832 9.398-2.908 11.352-1.787 2.609 1.508 5.371 5.162 3.695 14.02-.531 2.795-1.457 5.852-2.715 9.014 1.203.119 2.207.498 3.023.969 2.605 1.506 5.367 5.16 3.691 14.018-.969 5.113-3.266 11.105-6.516 17.025.992.127 1.934.445 2.82.955 2.609 1.508 5.371 5.162 3.695 14.02-1.051 5.543-3.66 12.117-7.352 18.512-.316.541-.625 1.066-.941 1.584-4.512 7.41-7.504 39.688-7.504 50.775v7.088c.002 2.209-1.787 4-3.998 4zm-24-8h20v-3.09c0-7.182 2.262-44.404 8.676-54.947l.848-1.422c6.59-11.42 7.328-19.609 6.535-21.5-1.012.168-4.203 1.562-9 7.25-1.086 1.285-2.867 1.754-4.43 1.178-1.578-.578-2.629-2.078-2.629-3.758v-.979c0-1.035.402-2.031 1.121-2.777 2.953-3.061 5.855-7.004 8.395-11.404 6.598-11.426 7.336-19.613 6.543-21.508-.641.111-2.215.719-4.605 2.75-1.484 1.264-3.664 1.271-5.164.016-1.492-1.256-1.863-3.408-.875-5.09 6.695-11.59 7.438-19.785 6.645-21.678-.863.139-3.23 1.158-6.848 4.873-1.043 1.072-2.605 1.463-4.023 1.039-1.43-.434-2.5-1.625-2.773-3.092-2.514-13.363-6.83-17.861-8.416-17.861s-5.902 4.498-8.414 17.861c-.273 1.467-1.344 2.658-2.773 3.092-1.422.424-2.98.033-4.023-1.039-3.617-3.713-5.984-4.734-6.848-4.873-.793 1.891-.055 10.08 6.543 21.51.973 1.686.648 3.922-.844 5.168-1.496 1.25-3.605 1.336-5.094.074-2.391-2.033-3.965-2.639-4.605-2.75-.793 1.895-.055 10.082 6.543 21.508 2.539 4.4 5.441 8.344 8.395 11.404.719.746 1.121 1.742 1.121 2.777v.979c0 1.68-1.051 3.18-2.629 3.758-1.566.574-3.344.107-4.43-1.178-4.797-5.688-7.988-7.082-9-7.25-.793 1.891-.055 10.08 6.543 21.51l.832 1.4c6.422 10.555 8.684 47.777 8.684 54.959v3.09z" fill="#4c241d"/></g><g><path d="m176.065 225.722c-4.652-4.25-8.506-9.303-11.375-14.897l83.678-61.436c11.789 11.619 17.92 28.607 14.976 46.171-4.8 28.636-31.906 47.96-60.542 43.159-10.368-1.737-19.514-6.398-26.737-12.997" fill="#fc8c29"/><path d="m211.611 243.457c-3.145 0-6.309-.264-9.473-.793-10.781-1.807-20.73-6.645-28.773-13.988-5.02-4.586-9.137-9.979-12.234-16.027-.898-1.748-.391-3.887 1.191-5.049l83.676-61.436c1.578-1.16 3.773-1.006 5.176.375 13.137 12.947 19.16 31.52 16.113 49.684-2.5 14.902-10.652 27.941-22.957 36.713-9.691 6.91-21.051 10.521-32.719 10.521zm-32.847-20.687c6.898 6.303 15.438 10.453 24.695 12.004 12.797 2.145 25.664-.818 36.227-8.352 10.566-7.531 17.566-18.727 19.711-31.523 2.43-14.477-1.855-29.258-11.508-40.197l-77.992 57.262c2.418 4.005 5.39 7.63 8.867 10.806z" fill="#4c241d"/></g><g><path d="m252.194 153.631c-1.204-1.475-2.467-2.903-3.827-4.242l-38.544 28.299c3.512 5.051 8.768 8.687 15.062 9.742 13.073 2.191 25.594-7.513 27.968-21.675.706-4.213.415-8.339-.659-12.124z" fill="#ffce56"/><path d="m228.568 191.736c-1.438 0-2.887-.117-4.344-.361-7.121-1.193-13.402-5.244-17.688-11.404-1.238-1.781-.832-4.225.918-5.508l38.543-28.299c1.578-1.16 3.773-1.006 5.176.375 1.363 1.346 2.711 2.838 4.117 4.562.348.424.602.912.75 1.438 1.285 4.533 1.543 9.203.758 13.879-2.476 14.752-14.659 25.318-28.23 25.318zm-12.941-13.347c2.762 2.697 6.18 4.469 9.918 5.096 10.898 1.816 21.355-6.426 23.363-18.391.543-3.229.422-6.449-.355-9.588-.227-.271-.453-.537-.68-.795z" fill="#4c241d"/></g><g><path d="m102.705 174-2.77-36h-40l-2.77 36c-5.604 2.428-9.23 7.953-9.23 14.06v41.165c0 7.055 5.719 12.775 12.775 12.775h38.45c7.055 0 12.775-5.719 12.775-12.775v-41.165c.001-6.107-3.626-11.632-9.23-14.06z" fill="#e66353"/><path d="m99.162 246h-38.453c-9.25 0-16.773-7.525-16.773-16.775v-41.164c0-6.865 3.625-13.137 9.414-16.59l2.598-33.777c.16-2.084 1.898-3.693 3.988-3.693h40c2.09 0 3.828 1.609 3.988 3.693l2.598 33.777c5.789 3.453 9.414 9.725 9.414 16.59v41.164c0 9.25-7.524 16.775-16.774 16.775zm-35.523-104-2.484 32.307c-.113 1.479-1.039 2.773-2.398 3.363-4.145 1.795-6.82 5.873-6.82 10.391v41.164c0 4.838 3.938 8.775 8.773 8.775h38.453c4.836 0 8.773-3.938 8.773-8.775v-41.164c0-4.518-2.676-8.596-6.82-10.391-1.359-.59-2.285-1.885-2.398-3.363l-2.485-32.307z" fill="#4c241d"/></g><circle cx="88.941" cy="86.927" fill="#4c241d" r="4.276"/><path d="m103.936 142h-48c-2.211 0-4-1.791-4-4v-12c0-2.209 1.789-4 4-4h48c2.211 0 4 1.791 4 4v12c0 2.209-1.789 4-4 4zm-44-8h40v-4h-40z" fill="#4c241d"/><path d="m79.936 226.002c-.496 0-1-.094-1.484-.287-2.051-.822-3.051-3.148-2.23-5.201l5.807-14.514h-10.093c-1.285 0-2.492-.617-3.246-1.662-.75-1.043-.957-2.383-.547-3.604l8-24c.699-2.094 2.949-3.236 5.059-2.529 2.094.699 3.227 2.965 2.527 5.061l-6.243 18.734h10.449c1.328 0 2.566.658 3.312 1.758.742 1.1.895 2.496.402 3.729l-8 20c-.624 1.562-2.127 2.513-3.713 2.515z" fill="#4c241d"/></g></svg>