<svg width="161" height="27" viewBox="0 0 161 27" fill="none" xmlns="http://www.w3.org/2000/svg">
<path d="M21.9865 7.408V12.376H27.8905C28.2265 12.376 28.4985 12.48 28.7065 12.688C28.9305 12.896 29.0425 13.168 29.0425 13.504C29.0425 13.792 28.9305 14.04 28.7065 14.248C28.4985 14.456 28.2265 14.56 27.8905 14.56H21.9865V20.848C21.9865 21.168 21.8665 21.44 21.6265 21.664C21.4025 21.888 21.1305 22 20.8105 22C20.4745 22 20.1945 21.888 19.9705 21.664C19.7465 21.44 19.6345 21.168 19.6345 20.848V6.352C19.6345 6.032 19.7465 5.76 19.9705 5.536C20.1945 5.312 20.4665 5.2 20.7865 5.2H28.9705C29.3065 5.2 29.5785 5.304 29.7865 5.512C30.0105 5.72 30.1225 5.992 30.1225 6.328C30.1225 6.616 30.0105 6.872 29.7865 7.096C29.5625 7.304 29.2905 7.408 28.9705 7.408H21.9865ZM47.5658 15.712C47.5658 16.96 47.2858 18.08 46.7258 19.072C46.1658 20.064 45.3978 20.84 44.4218 21.4C43.4618 21.96 42.3978 22.24 41.2298 22.24C40.0618 22.24 38.9898 21.96 38.0138 21.4C37.0538 20.84 36.2938 20.064 35.7338 19.072C35.1738 18.08 34.8938 16.96 34.8938 15.712C34.8938 14.464 35.1738 13.336 35.7338 12.328C36.2938 11.32 37.0538 10.536 38.0138 9.976C38.9898 9.416 40.0618 9.136 41.2298 9.136C42.3978 9.136 43.4618 9.416 44.4218 9.976C45.3978 10.536 46.1658 11.32 46.7258 12.328C47.2858 13.336 47.5658 14.464 47.5658 15.712ZM45.2858 15.712C45.2858 14.848 45.1018 14.08 44.7338 13.408C44.3818 12.72 43.8938 12.192 43.2698 11.824C42.6618 11.44 41.9818 11.248 41.2298 11.248C40.4778 11.248 39.7898 11.44 39.1658 11.824C38.5578 12.192 38.0698 12.72 37.7018 13.408C37.3498 14.08 37.1738 14.848 37.1738 15.712C37.1738 16.56 37.3498 17.32 37.7018 17.992C38.0698 18.664 38.5578 19.192 39.1658 19.576C39.7898 19.944 40.4778 20.128 41.2298 20.128C41.9818 20.128 42.6618 19.944 43.2698 19.576C43.8938 19.192 44.3818 18.664 44.7338 17.992C45.1018 17.32 45.2858 16.56 45.2858 15.712ZM65.2405 15.712C65.2405 16.96 64.9605 18.08 64.4005 19.072C63.8405 20.064 63.0725 20.84 62.0965 21.4C61.1365 21.96 60.0725 22.24 58.9045 22.24C57.7365 22.24 56.6645 21.96 55.6885 21.4C54.7285 20.84 53.9685 20.064 53.4085 19.072C52.8485 18.08 52.5685 16.96 52.5685 15.712C52.5685 14.464 52.8485 13.336 53.4085 12.328C53.9685 11.32 54.7285 10.536 55.6885 9.976C56.6645 9.416 57.7365 9.136 58.9045 9.136C60.0725 9.136 61.1365 9.416 62.0965 9.976C63.0725 10.536 63.8405 11.32 64.4005 12.328C64.9605 13.336 65.2405 14.464 65.2405 15.712ZM62.9605 15.712C62.9605 14.848 62.7765 14.08 62.4085 13.408C62.0565 12.72 61.5685 12.192 60.9445 11.824C60.3365 11.44 59.6565 11.248 58.9045 11.248C58.1525 11.248 57.4645 11.44 56.8405 11.824C56.2325 12.192 55.7445 12.72 55.3765 13.408C55.0245 14.08 54.8485 14.848 54.8485 15.712C54.8485 16.56 55.0245 17.32 55.3765 17.992C55.7445 18.664 56.2325 19.192 56.8405 19.576C57.4645 19.944 58.1525 20.128 58.9045 20.128C59.6565 20.128 60.3365 19.944 60.9445 19.576C61.5685 19.192 62.0565 18.664 62.4085 17.992C62.7765 17.32 62.9605 16.56 62.9605 15.712ZM81.5232 9.256C81.8592 9.256 82.1312 9.368 82.3392 9.592C82.5632 9.8 82.6752 10.08 82.6752 10.432V20.992C82.6752 22.288 82.3952 23.368 81.8352 24.232C81.2912 25.112 80.5472 25.76 79.6032 26.176C78.6592 26.592 77.5952 26.8 76.4112 26.8C75.7712 26.8 75.0192 26.688 74.1552 26.464C73.3072 26.24 72.7632 26.008 72.5232 25.768C72.0272 25.512 71.7792 25.192 71.7792 24.808C71.7792 24.712 71.8112 24.584 71.8752 24.424C72.0512 24.024 72.3472 23.824 72.7632 23.824C72.9712 23.824 73.1952 23.872 73.4352 23.968C74.7152 24.464 75.7152 24.712 76.4352 24.712C77.7152 24.712 78.6912 24.4 79.3632 23.776C80.0512 23.168 80.3952 22.328 80.3952 21.256V19.96C80.0592 20.584 79.4912 21.12 78.6912 21.568C77.9072 22.016 77.0752 22.24 76.1952 22.24C75.0912 22.24 74.0832 21.96 73.1712 21.4C72.2592 20.84 71.5392 20.064 71.0112 19.072C70.4992 18.064 70.2432 16.936 70.2432 15.688C70.2432 14.44 70.4992 13.32 71.0112 12.328C71.5392 11.32 72.2512 10.536 73.1472 9.976C74.0592 9.416 75.0592 9.136 76.1472 9.136C77.0272 9.136 77.8432 9.336 78.5952 9.736C79.3632 10.136 79.9632 10.624 80.3952 11.2V10.432C80.3952 10.096 80.4992 9.816 80.7072 9.592C80.9152 9.368 81.1872 9.256 81.5232 9.256ZM76.4592 20.128C77.2432 20.128 77.9392 19.944 78.5472 19.576C79.1552 19.192 79.6272 18.664 79.9632 17.992C80.3152 17.304 80.4912 16.536 80.4912 15.688C80.4912 14.84 80.3152 14.08 79.9632 13.408C79.6272 12.736 79.1552 12.208 78.5472 11.824C77.9392 11.44 77.2432 11.248 76.4592 11.248C75.6912 11.248 75.0032 11.44 74.3952 11.824C73.7872 12.208 73.3072 12.744 72.9552 13.432C72.6192 14.104 72.4512 14.856 72.4512 15.688C72.4512 16.52 72.6192 17.28 72.9552 17.968C73.3072 18.64 73.7872 19.168 74.3952 19.552C75.0032 19.936 75.6912 20.128 76.4592 20.128ZM99.2609 9.256C99.5969 9.256 99.8689 9.368 100.077 9.592C100.301 9.8 100.413 10.08 100.413 10.432V20.848C100.413 21.168 100.301 21.44 100.077 21.664C99.8689 21.888 99.5969 22 99.2609 22C98.9249 22 98.6529 21.896 98.4449 21.688C98.2369 21.464 98.1329 21.184 98.1329 20.848V20.224C97.7169 20.784 97.1489 21.264 96.4289 21.664C95.7089 22.048 94.9329 22.24 94.1009 22.24C93.0129 22.24 92.0209 21.96 91.1249 21.4C90.2449 20.84 89.5489 20.064 89.0369 19.072C88.5409 18.064 88.2929 16.936 88.2929 15.688C88.2929 14.44 88.5409 13.32 89.0369 12.328C89.5489 11.32 90.2449 10.536 91.1249 9.976C92.0049 9.416 92.9729 9.136 94.0289 9.136C94.8769 9.136 95.6609 9.312 96.3809 9.664C97.1169 10.016 97.7009 10.464 98.1329 11.008V10.432C98.1329 10.096 98.2369 9.816 98.4449 9.592C98.6529 9.368 98.9249 9.256 99.2609 9.256ZM94.3649 20.128C95.1169 20.128 95.7809 19.936 96.3569 19.552C96.9489 19.168 97.4049 18.64 97.7249 17.968C98.0609 17.296 98.2289 16.536 98.2289 15.688C98.2289 14.856 98.0609 14.104 97.7249 13.432C97.4049 12.76 96.9489 12.232 96.3569 11.848C95.7809 11.448 95.1169 11.248 94.3649 11.248C93.6129 11.248 92.9409 11.44 92.3489 11.824C91.7729 12.208 91.3169 12.736 90.9809 13.408C90.6609 14.08 90.5009 14.84 90.5009 15.688C90.5009 16.536 90.6609 17.296 90.9809 17.968C91.3169 18.64 91.7729 19.168 92.3489 19.552C92.9409 19.936 93.6129 20.128 94.3649 20.128ZM113.331 9.136C116.211 9.136 117.651 10.864 117.651 14.32V20.848C117.651 21.168 117.539 21.44 117.315 21.664C117.107 21.888 116.835 22 116.499 22C116.179 22 115.907 21.888 115.683 21.664C115.475 21.44 115.371 21.168 115.371 20.848V14.344C115.371 13.4 115.155 12.648 114.723 12.088C114.291 11.528 113.587 11.248 112.611 11.248C111.971 11.248 111.387 11.392 110.859 11.68C110.347 11.952 109.939 12.328 109.635 12.808C109.347 13.272 109.203 13.784 109.203 14.344V20.848C109.203 21.168 109.091 21.44 108.867 21.664C108.659 21.888 108.387 22 108.051 22C107.715 22 107.443 21.896 107.235 21.688C107.027 21.464 106.923 21.184 106.923 20.848V10.576C106.923 10.256 107.027 9.984 107.235 9.76C107.459 9.536 107.731 9.424 108.051 9.424C108.387 9.424 108.659 9.536 108.867 9.76C109.091 9.984 109.203 10.256 109.203 10.576V11.416C109.619 10.776 110.195 10.24 110.931 9.808C111.683 9.36 112.483 9.136 113.331 9.136ZM126.336 20.848C126.336 21.168 126.224 21.44 126 21.664C125.792 21.888 125.52 22 125.184 22C124.864 22 124.592 21.888 124.368 21.664C124.16 21.44 124.056 21.168 124.056 20.848V10.456C124.056 10.136 124.16 9.864 124.368 9.64C124.592 9.416 124.864 9.304 125.184 9.304C125.52 9.304 125.792 9.416 126 9.64C126.224 9.864 126.336 10.136 126.336 10.456V20.848ZM125.184 7.72C124.72 7.72 124.384 7.64 124.176 7.48C123.984 7.304 123.888 7.032 123.888 6.664V6.28C123.888 5.896 123.992 5.624 124.2 5.464C124.424 5.304 124.76 5.224 125.208 5.224C125.656 5.224 125.976 5.312 126.168 5.488C126.376 5.648 126.48 5.912 126.48 6.28V6.664C126.48 7.048 126.376 7.32 126.168 7.48C125.96 7.64 125.632 7.72 125.184 7.72ZM138.205 9.136C139.469 9.136 140.517 9.336 141.349 9.736C142.197 10.136 142.621 10.648 142.621 11.272C142.621 11.544 142.533 11.792 142.357 12.016C142.181 12.224 141.957 12.328 141.685 12.328C141.477 12.328 141.309 12.296 141.181 12.232C141.069 12.168 140.909 12.064 140.701 11.92C140.605 11.824 140.453 11.712 140.245 11.584C140.053 11.488 139.781 11.408 139.429 11.344C139.077 11.28 138.757 11.248 138.469 11.248C137.637 11.248 136.901 11.44 136.261 11.824C135.621 12.208 135.125 12.744 134.773 13.432C134.421 14.104 134.245 14.856 134.245 15.688C134.245 16.536 134.413 17.296 134.749 17.968C135.101 18.64 135.589 19.168 136.213 19.552C136.837 19.936 137.549 20.128 138.349 20.128C139.181 20.128 139.853 20 140.365 19.744C140.477 19.68 140.629 19.576 140.821 19.432C140.981 19.304 141.117 19.208 141.229 19.144C141.357 19.08 141.509 19.048 141.685 19.048C142.005 19.048 142.253 19.152 142.429 19.36C142.621 19.552 142.717 19.808 142.717 20.128C142.717 20.464 142.501 20.8 142.069 21.136C141.653 21.456 141.085 21.72 140.365 21.928C139.661 22.136 138.901 22.24 138.085 22.24C136.869 22.24 135.797 21.96 134.869 21.4C133.941 20.824 133.221 20.04 132.709 19.048C132.213 18.04 131.965 16.92 131.965 15.688C131.965 14.456 132.229 13.344 132.757 12.352C133.285 11.344 134.021 10.56 134.965 10C135.909 9.424 136.989 9.136 138.205 9.136Z" fill="#404355"/>
<path d="M41.811 8.85822C41.8614 8.83671 41.9148 8.81699 41.9707 8.79926C41.9148 8.81705 41.8615 8.83671 41.811 8.85822Z" fill="#FC4041"/>
<path d="M41.3833 9.11538C41.4141 9.09041 41.448 9.06504 41.4841 9.03967C41.4479 9.06504 41.4142 9.09034 41.3833 9.11538Z" fill="#FC4041"/>
<path d="M42.0056 8.78896C42.0654 8.77136 42.1272 8.75536 42.1931 8.74341C42.1271 8.75543 42.0654 8.77136 42.0056 8.78896Z" fill="#FC4041"/>
<path d="M41.2876 9.19883C41.311 9.17692 41.3373 9.15388 41.3654 9.13037C41.3372 9.15388 41.311 9.17685 41.2876 9.19883Z" fill="#FC4041"/>
<path d="M42.1929 8.74347C42.2653 8.84852 42.3174 8.92927 42.3576 8.99767C42.3124 8.91333 42.2589 8.82807 42.1929 8.74347Z" fill="#FC4041"/>
<path d="M44.2485 9.70361C44.2929 9.73529 44.337 9.76736 44.3807 9.80004C44.337 9.76736 44.293 9.73529 44.2485 9.70361Z" fill="#FC4041"/>
<path d="M44.6104 9.9798C44.6508 10.0127 44.692 10.0447 44.7317 10.0784C44.692 10.0447 44.6509 10.0127 44.6104 9.9798Z" fill="#FC4041"/>
<path d="M41.6462 8.93844C41.6883 8.91513 41.7336 8.89289 41.7808 8.8717C41.7336 8.89295 41.6884 8.91513 41.6462 8.93844Z" fill="#FC4041"/>
<path d="M43.8799 9.45569C43.9201 9.48086 43.9592 9.50742 43.9989 9.53332C43.9592 9.50742 43.9201 9.48086 43.8799 9.45569Z" fill="#FC4041"/>
<path d="M45.3496 10.6677C45.3944 10.7156 45.4377 10.7648 45.4812 10.8139C45.4377 10.7647 45.3944 10.7156 45.3496 10.6677Z" fill="#FC4041"/>
<path d="M45.6384 10.9965C45.682 11.0489 45.7252 11.1016 45.7673 11.1553C45.7252 11.1016 45.682 11.049 45.6384 10.9965Z" fill="#FC4041"/>
<path d="M41.5105 9.02184C41.5491 8.99581 41.5897 8.96985 41.634 8.94495C41.5897 8.96985 41.5491 8.99575 41.5105 9.02184Z" fill="#FC4041"/>
<path d="M45.1445 10.4583C45.1111 10.4253 45.079 10.391 45.0449 10.3587C45.079 10.391 45.1111 10.4253 45.1445 10.4583Z" fill="#FC4041"/>
<path d="M40.2002 9.10817C40.2005 9.08067 40.203 9.05312 40.2078 9.02576C40.203 9.05318 40.2005 9.08067 40.2002 9.10817Z" fill="#FC4041"/>
<path d="M41.2783 9.2074C41.2526 9.23177 41.2307 9.25421 41.2109 9.27526C41.2305 9.25435 41.2528 9.23164 41.2783 9.2074Z" fill="#FC4041"/>
<path d="M40.2412 8.91515C40.253 8.88779 40.2664 8.8609 40.2835 8.83527C40.2664 8.86097 40.253 8.88786 40.2412 8.91515Z" fill="#FC4041"/>
<path d="M40.2126 9.00389C40.2176 8.98205 40.2239 8.96046 40.2318 8.93915C40.2239 8.96046 40.2175 8.98198 40.2126 9.00389Z" fill="#FC4041"/>
<path d="M32.7116 16.4467C32.7025 16.3608 32.6965 16.2741 32.6904 16.1874C32.6965 16.2741 32.7025 16.3608 32.7116 16.4467Z" fill="#FC4041"/>
<path d="M34.0465 19.9393C33.9955 19.8686 33.9451 19.7974 33.8967 19.7249C33.9451 19.7975 33.9956 19.8686 34.0465 19.9393Z" fill="#FC4041"/>
<path d="M35.0981 21.1154C35.0107 21.0367 34.9253 20.9559 34.8418 20.8731C34.9253 20.9559 35.0107 21.0367 35.0981 21.1154Z" fill="#FC4041"/>
<path d="M34.2945 20.2656C34.2305 20.1863 34.1676 20.1061 34.1069 20.0242C34.1676 20.1062 34.2305 20.1863 34.2945 20.2656Z" fill="#FC4041"/>
<path d="M33.6328 19.2953C33.5949 19.2291 33.5575 19.1626 33.5217 19.095C33.5575 19.1626 33.5949 19.229 33.6328 19.2953Z" fill="#FC4041"/>
<path d="M33.8292 19.6193C33.7858 19.5518 33.7428 19.484 33.7017 19.415C33.7428 19.484 33.7858 19.5518 33.8292 19.6193Z" fill="#FC4041"/>
<path d="M40.2307 9.28418C40.2237 9.26486 40.2177 9.24527 40.2131 9.22528C40.2177 9.24527 40.2237 9.26486 40.2307 9.28418Z" fill="#FC4041"/>
<path d="M45.8027 11.2025C45.3729 10.8184 44.2445 9.92695 43.5671 9.74042C43.5528 9.54207 43.5549 9.54127 43.5368 9.44193C43.5896 9.80318 43.5577 10.0588 43.5544 10.0815C43.5191 10.3309 43.3053 10.511 43.0605 10.511C43.0373 10.511 43.0137 10.5093 42.9899 10.5059C42.7183 10.4675 42.5286 10.217 42.5649 9.94548C42.5676 9.9229 42.5939 9.6695 42.4991 9.34292C42.5087 9.38097 42.5185 9.42121 42.5305 9.46909C42.4324 9.41995 41.9312 9.26934 41.1533 9.34006C41.1661 9.32466 41.1828 9.30566 41.2016 9.28528C41.147 9.34451 41.1168 9.38628 41.1124 9.39252C41.0165 9.53656 40.8594 9.61392 40.6989 9.61392C40.6034 9.61392 40.5069 9.58656 40.4212 9.52958C40.341 9.47619 40.2828 9.40275 40.2457 9.32087C40.2526 9.33588 40.2592 9.35102 40.2676 9.36536C38.6957 9.50508 37.2649 10.1425 36.1347 11.1193C36.1116 11.1355 36.0896 11.1532 36.0695 11.1732C36.1626 11.0806 36.2911 11.0274 36.4224 11.0274C36.5542 11.0274 36.6827 11.0806 36.7759 11.1732C36.8685 11.2664 36.9224 11.3949 36.9224 11.5261C36.9224 11.6579 36.8685 11.7865 36.7759 11.8797C36.6827 11.9722 36.5542 12.0255 36.4224 12.0255C36.2911 12.0255 36.1626 11.9722 36.0695 11.8797C35.9762 11.7864 35.923 11.6579 35.923 11.5261C35.923 11.395 35.9762 11.2664 36.0695 11.1732C36.0636 11.1791 36.0583 11.1855 36.0527 11.1917C34.5437 12.5353 33.5916 14.4915 33.5916 16.666C33.5916 18.341 34.1567 19.8862 35.1057 21.122C36.4044 22.2893 38.1205 23.0011 40 23.0011C44.0419 23.0011 47.3302 19.7127 47.3302 15.6708C47.3301 13.9895 46.7584 12.4406 45.8027 11.2025ZM34.1343 16.0676C34.0417 15.9744 33.9885 15.8459 33.9885 15.7147C33.9885 15.5828 34.0417 15.4543 34.1343 15.3611C34.2275 15.2685 34.356 15.2146 34.4872 15.2146C34.619 15.2146 34.7475 15.2686 34.8408 15.3611C34.9339 15.4543 34.9873 15.5828 34.9873 15.7147C34.9873 15.8459 34.9339 15.9744 34.8408 16.0676C34.7475 16.1602 34.619 16.214 34.4872 16.214C34.3561 16.214 34.2276 16.1602 34.1343 16.0676ZM35.4122 18.5028C35.3196 18.596 35.1905 18.6492 35.0592 18.6492C34.9281 18.6492 34.7989 18.596 34.7064 18.5028C34.6131 18.4103 34.5599 18.281 34.5599 18.1498C34.5599 18.018 34.6132 17.8894 34.7064 17.7969C34.7989 17.7037 34.9281 17.6504 35.0592 17.6504C35.1905 17.6504 35.3196 17.7037 35.4122 17.7969C35.5054 17.8894 35.5586 18.018 35.5586 18.1498C35.5586 18.281 35.5054 18.4102 35.4122 18.5028ZM35.4122 13.6211C35.3196 13.7136 35.1911 13.7669 35.0592 13.7669C34.9274 13.7669 34.7989 13.7137 34.7064 13.6211C34.6131 13.5279 34.5599 13.3994 34.5599 13.2675C34.5599 13.1363 34.6132 13.0078 34.7064 12.9146C34.7989 12.8214 34.9281 12.7681 35.0592 12.7681C35.1905 12.7681 35.319 12.8214 35.4122 12.9146C35.5054 13.0078 35.5586 13.1363 35.5586 13.2675C35.5586 13.3994 35.5054 13.5279 35.4122 13.6211ZM36.7759 20.1688C36.6827 20.2613 36.5542 20.3146 36.4224 20.3146C36.2911 20.3146 36.1626 20.2614 36.0695 20.1688C35.9762 20.0756 35.923 19.9464 35.923 19.8152C35.923 19.684 35.9762 19.5549 36.0695 19.4623C36.1626 19.3691 36.2911 19.3158 36.4224 19.3158C36.5542 19.3158 36.6827 19.3692 36.7759 19.4623C36.8685 19.5549 36.9217 19.684 36.9217 19.8152C36.9218 19.9464 36.8685 20.0756 36.7759 20.1688ZM37.2154 17.3162C37.1229 17.4093 36.9944 17.4626 36.8625 17.4626C36.7313 17.4626 36.6022 17.4093 36.5096 17.3162C36.4164 17.2236 36.3631 17.0944 36.3631 16.9632C36.3631 16.8314 36.4164 16.7029 36.5096 16.6097C36.6022 16.5172 36.7313 16.4638 36.8625 16.4638C36.9937 16.4638 37.1229 16.5172 37.2154 16.6097C37.3087 16.7029 37.3619 16.8314 37.3619 16.9632C37.3619 17.0944 37.3086 17.2229 37.2154 17.3162ZM37.2154 14.7318C37.1229 14.8251 36.9944 14.8783 36.8625 14.8783C36.7313 14.8783 36.6022 14.825 36.5096 14.7318C36.4164 14.6393 36.3631 14.5101 36.3631 14.3789C36.3631 14.2471 36.4164 14.1185 36.5096 14.0254C36.6022 13.9327 36.7313 13.8795 36.8625 13.8795C36.9937 13.8795 37.1229 13.9327 37.2154 14.0254C37.3087 14.1185 37.3619 14.2471 37.3619 14.3789C37.3619 14.5101 37.3086 14.6393 37.2154 14.7318Z" fill="#FC4041"/>
<path d="M40.2071 9.19264C40.2041 9.17365 40.2022 9.15446 40.2014 9.13513C40.2023 9.15446 40.2041 9.17358 40.2071 9.19264Z" fill="#FC4041"/>
<path d="M32.8315 17.2002C32.8161 17.1277 32.8028 17.0546 32.7896 16.9813C32.8028 17.0546 32.8161 17.1277 32.8315 17.2002Z" fill="#FC4041"/>
<path d="M32.9203 17.5677C32.9015 17.4976 32.8844 17.4267 32.8677 17.3557C32.8844 17.4267 32.9015 17.4975 32.9203 17.5677Z" fill="#FC4041"/>
<path d="M32.7618 16.8265C32.7496 16.7498 32.7401 16.6724 32.7302 16.595C32.74 16.6724 32.7496 16.7498 32.7618 16.8265Z" fill="#FC4041"/>
<path d="M34.3313 20.3126C34.4891 20.5049 34.6564 20.6891 34.8326 20.8645C34.6564 20.6891 34.4891 20.5049 34.3313 20.3126Z" fill="#FC4041"/>
<path d="M33.4546 18.9647C33.4213 18.8987 33.3886 18.8323 33.3572 18.7653C33.3886 18.8324 33.4213 18.8987 33.4546 18.9647Z" fill="#FC4041"/>
<path d="M32.6805 16.0615C32.6737 15.9321 32.6699 15.802 32.6699 15.671C32.6699 15.802 32.6738 15.9321 32.6805 16.0615Z" fill="#FC4041"/>
<path d="M33.2945 18.6268C33.2651 18.5604 33.2367 18.4935 33.2092 18.4262C33.2367 18.4935 33.2651 18.5603 33.2945 18.6268Z" fill="#FC4041"/>
<path d="M33.1519 18.2811C33.1262 18.2139 33.1017 18.1461 33.0779 18.0779C33.1017 18.1461 33.1262 18.2139 33.1519 18.2811Z" fill="#FC4041"/>
<path d="M33.0272 17.9281C33.0049 17.8596 32.9841 17.7905 32.9639 17.7211C32.9841 17.7904 33.0049 17.8595 33.0272 17.9281Z" fill="#FC4041"/>
<path d="M36.8624 13.8795C36.7313 13.8795 36.6021 13.9327 36.5095 14.0253C36.4164 14.1185 36.363 14.2471 36.363 14.3789C36.363 14.51 36.4164 14.6393 36.5095 14.7318C36.6022 14.8251 36.7313 14.8783 36.8624 14.8783C36.9943 14.8783 37.1228 14.8251 37.2153 14.7318C37.3085 14.6393 37.3618 14.5101 37.3618 14.3789C37.3618 14.2471 37.3085 14.1185 37.2153 14.0253C37.1228 13.9327 36.9936 13.8795 36.8624 13.8795Z" fill="#404355"/>
<path d="M36.8624 16.4637C36.7313 16.4637 36.6021 16.5171 36.5095 16.6096C36.4164 16.7028 36.363 16.8313 36.363 16.9631C36.363 17.0943 36.4164 17.2235 36.5095 17.3161C36.6022 17.4093 36.7313 17.4625 36.8624 17.4625C36.9943 17.4625 37.1228 17.4093 37.2153 17.3161C37.3085 17.2229 37.3618 17.0944 37.3618 16.9631C37.3618 16.8313 37.3085 16.7028 37.2153 16.6096C37.1228 16.5171 36.9936 16.4637 36.8624 16.4637Z" fill="#404355"/>
<path d="M36.4222 19.3157C36.291 19.3157 36.1625 19.3691 36.0693 19.4622C35.9761 19.5548 35.9229 19.684 35.9229 19.8151C35.9229 19.9463 35.9761 20.0755 36.0693 20.1687C36.1625 20.2612 36.291 20.3145 36.4222 20.3145C36.554 20.3145 36.6826 20.2613 36.7758 20.1687C36.8684 20.0755 36.9217 19.9463 36.9217 19.8151C36.9217 19.684 36.8684 19.5548 36.7758 19.4622C36.6826 19.3691 36.554 19.3157 36.4222 19.3157Z" fill="#404355"/>
<path d="M36.4222 12.0256C36.554 12.0256 36.6826 11.9723 36.7758 11.8798C36.8684 11.7865 36.9223 11.658 36.9223 11.5262C36.9223 11.3951 36.8683 11.2665 36.7758 11.1734C36.6826 11.0807 36.554 11.0275 36.4222 11.0275C36.291 11.0275 36.1625 11.0807 36.0693 11.1734C35.9761 11.2665 35.9229 11.3951 35.9229 11.5262C35.9229 11.658 35.9761 11.7866 36.0693 11.8798C36.1625 11.9723 36.291 12.0256 36.4222 12.0256Z" fill="#404355"/>
<path d="M35.0592 12.7681C34.9281 12.7681 34.7989 12.8214 34.7063 12.9146C34.6131 13.0078 34.5598 13.1363 34.5598 13.2674C34.5598 13.3993 34.6131 13.5278 34.7063 13.621C34.7989 13.7135 34.9274 13.7668 35.0592 13.7668C35.1911 13.7668 35.3196 13.7135 35.4122 13.621C35.5054 13.5278 35.5586 13.3993 35.5586 13.2674C35.5586 13.1363 35.5054 13.0078 35.4122 12.9146C35.319 12.8214 35.1905 12.7681 35.0592 12.7681Z" fill="#404355"/>
<path d="M34.9873 15.7146C34.9873 15.5828 34.9339 15.4543 34.8408 15.3611C34.7475 15.2686 34.619 15.2146 34.4872 15.2146C34.356 15.2146 34.2275 15.2686 34.1343 15.3611C34.0417 15.4543 33.9885 15.5828 33.9885 15.7146C33.9885 15.8458 34.0418 15.9743 34.1343 16.0676C34.2275 16.1601 34.356 16.214 34.4872 16.214C34.619 16.214 34.7475 16.1601 34.8408 16.0676C34.934 15.9743 34.9873 15.8458 34.9873 15.7146Z" fill="#404355"/>
<path d="M35.0592 17.6504C34.9281 17.6504 34.7989 17.7036 34.7063 17.7969C34.6131 17.8894 34.5598 18.0179 34.5598 18.1498C34.5598 18.281 34.6131 18.4102 34.7063 18.5027C34.7989 18.5959 34.928 18.6492 35.0592 18.6492C35.1905 18.6492 35.3196 18.5959 35.4122 18.5027C35.5054 18.4102 35.5586 18.281 35.5586 18.1498C35.5586 18.018 35.5054 17.8895 35.4122 17.7969C35.3196 17.7036 35.1905 17.6504 35.0592 17.6504Z" fill="#404355"/>
<path d="M43.1821 7.97429C43.8675 7.06851 45.4373 5.18154 47.1221 4.42491C47.3737 4.31195 47.5287 4.05882 47.4441 3.79632C47.3594 3.53375 47.0778 3.38965 46.8155 3.47438C46.1796 3.67951 45.5725 4.04016 45.0159 4.47053C44.8216 3.69525 44.4042 2.56961 43.5227 1.68801C42.7284 0.893731 41.817 0.47013 41.1922 0.254578C40.2905 -0.0564653 39.7017 -0.0826291 39.4419 0.176884C39.4419 0.176884 39.3761 0.233328 39.3306 0.346616C39.2055 0.657992 39.2631 1.18545 39.5189 1.92707C39.7344 2.55188 40.158 3.46342 40.9523 4.25763C41.8062 5.11161 42.8893 5.5299 43.6609 5.73197C42.9698 6.48441 42.4479 7.22058 42.1749 7.6307C41.4813 7.44284 40.7522 7.34197 39.9998 7.34197C35.4072 7.34197 31.6709 11.0783 31.6709 15.671C31.6709 20.2636 35.4073 24 39.9998 24C44.5925 24 48.3288 20.2636 48.3288 15.671C48.3288 12.2048 46.2004 9.22683 43.1821 7.97429ZM42.8164 2.39423C43.5674 3.14528 43.9131 4.15178 44.067 4.80189C43.4164 4.64817 42.4098 4.30246 41.6586 3.55121C40.7987 2.69133 40.4266 1.61602 40.3076 1.04308C40.8803 1.16194 41.9562 1.53401 42.8164 2.39423ZM32.6697 15.671C32.6697 11.6291 35.958 8.34078 39.9998 8.34078C40.2404 8.34078 40.4783 8.3528 40.7132 8.37557C40.4381 8.60779 40.296 8.81637 40.2834 8.83523C40.1306 9.06486 40.1914 9.37677 40.421 9.5297C40.5067 9.58668 40.6032 9.61404 40.6987 9.61404C40.8592 9.61404 41.0164 9.53667 41.1122 9.39264C41.1284 9.3694 41.4836 8.87196 42.1927 8.74346C42.6326 9.30718 42.5688 9.91007 42.5647 9.94553C42.5284 10.2171 42.718 10.4676 42.9897 10.506C43.0135 10.5094 43.0371 10.511 43.0604 10.511C43.3051 10.511 43.519 10.3309 43.5542 10.0815C43.5581 10.0546 43.6038 9.70176 43.4985 9.23108C45.7792 10.4751 47.33 12.8953 47.33 15.671C47.33 19.7129 44.0417 23.0013 39.9998 23.0013C35.958 23.0011 32.6697 19.7129 32.6697 15.671Z" fill="#404355"/>
<path d="M44.067 4.80191C43.9132 4.15173 43.5675 3.14529 42.8164 2.39424C41.9562 1.53396 40.8804 1.16196 40.3076 1.04309C40.4266 1.61604 40.7987 2.69134 41.6586 3.55123C42.4098 4.30254 43.4165 4.64824 44.067 4.80191Z" fill="#5D6275"/>
</svg>
