<svg width="34" height="72" viewBox="0 0 34 72" fill="none" xmlns="http://www.w3.org/2000/svg">
<path d="M18.0275 7.63015C16.266 1.74529 22.7981 -0.861919 22.7981 4.35251C26.7615 5.09742 24.7064 11.6527 18.0275 7.63015Z" fill="#99C8F2"/>
<path d="M19.5688 32.3611C16.7064 28.3385 29.4037 21.0383 31.9725 23.273C36.156 26.9125 21.7707 34.1489 19.5688 32.3611Z" fill="#A88869"/>
<path d="M11.6422 27.2957C18.3945 35.1918 16.1926 41.2256 11.2018 41.2256C6.21099 41.2256 7.01833 33.106 6.79815 32.2121C3.71558 29.3814 4.80182 26.8785 6.79815 25.2099C10.8348 24.0925 11.877 26.4613 11.6422 27.2957Z" fill="#697F4A"/>
<path d="M26.0275 71.9908C30.8715 72.5122 37.9908 50.8351 25.5871 52.1759C23.6789 51.878 17.7339 51.6545 19.3486 57.9118C19.6587 59.1136 22.3578 59.9231 22.9449 62.9773C23.7523 63.9456 19.8624 71.9908 26.0275 71.9908Z" fill="#7BB38B"/>
<path d="M5.33028 55.0066L9.14679 68.2662C9.5578 69.5176 10.4924 69.9298 10.9083 69.9795C20.1266 70.3966 24.2416 69.9547 25.1468 69.6815C26.0275 69.324 26.3456 68.5393 26.3945 68.1917C28.8018 61.398 29.526 55.6026 29.6239 53.8147C20.7431 55.3791 10.1743 54.6342 5.99083 53.7403C5.28624 53.5615 4.6208 52.8215 4.37615 52.4739C4.15596 52.0269 4.32722 49.9908 4.37615 49.8667C4.49358 49.3303 5.06116 48.9479 5.33028 48.8238C5.63524 48.6831 9.88259 50.1306 16.9266 50.1928M27.8624 49.1963C23.7327 49.975 20.054 50.2205 16.9266 50.1928M16.9266 50.1928C17.0215 48.7974 17.0865 47.4754 17.1274 46.2166M20.8899 6.36342C20.9144 5.14672 21.2275 2.40045 22.2844 1.14898C22.3726 1.04454 22.6514 1 22.945 1C23.6826 1 23.767 1.28307 24.1193 1.81941C24.2905 2.09255 24.545 2.95169 24.1927 4.20315C24.5352 3.93001 25.2936 3.38374 26.1743 3.53272C26.419 3.60721 27.055 3.83069 27.3486 4.50112C27.4954 4.87358 27.6022 5.17155 27.422 5.6185C27.2018 6.16478 26.9083 6.95935 25.5872 7.33182C25.5138 7.35665 24.5596 7.39141 21.3303 7.33182C21.1101 7.33181 21.0073 7.43611 20.8899 7.55529C19.8296 8.79293 19.0118 10.2949 18.3853 11.9503M18.3853 11.9503C17.3358 7.48079 16.1193 6.21443 14.2844 5.09705C13.3303 9.2686 16.0948 13.3905 16.5596 13.7381M18.3853 11.9503C17.4613 14.3919 16.9535 17.1674 16.6975 19.9209M16.6975 19.9209C15.4587 14.1851 11.9113 11.2302 10.3211 9.71555C10.9817 11.0564 11.0576 15.2637 10.6147 15.8984C9.36697 17.6862 9 18.9774 8.92661 19.2505C8.80917 20.3232 8.87768 20.9887 8.92661 21.1873C9.66055 23.72 13.3792 25.7313 14.8716 26.6252C15.4587 19.623 13.0122 19.474 11.9358 17.6862C13.2569 20.1444 13.6972 22.0067 13.5505 23.6455M16.6975 19.9209C16.5097 21.9411 16.4574 23.9496 16.4758 25.8058M16.4758 25.8058C16.4859 26.8282 16.5175 27.8044 16.5596 28.711C16.6406 30.4525 16.7623 32.2128 16.8769 34.0744M16.4758 25.8058C17.0126 25.3886 17.2446 24.7381 17.2936 24.4649C17.854 21.3363 19.422 20.939 20.2294 20.5914C24.4128 20.3679 24.4128 19.027 25.367 17.8352C22.6514 19.176 21.3547 18.6049 20.8899 18.4311C22.6514 16.9413 24.4373 16.3702 25.1468 16.1219C27.6422 15.2485 27.3976 13.0925 27.6422 12.1738C25.1468 14.334 23.411 14.2141 22.6514 14.483C19.4954 15.6004 18.419 17.2641 18.1009 17.8352M16.8769 34.0744C26.5413 32.6591 26.4679 31.2934 27.2018 30.3498C27.9358 29.4062 27.8624 24.5394 31.7523 21.8577C21.6972 21.8577 17.2936 29.9773 18.1743 31.9141C18.7028 31.9141 19.0306 31.7155 19.1284 31.6162C19.8624 30.8713 19.9358 29.7539 24.0459 29.4559C24.7798 29.4027 26.7859 26.6252 27.3486 25.7313C24.7798 25.5078 23.5076 27.4446 22.7248 28.264M16.8769 34.0744C17.0385 36.7007 17.1858 39.5287 17.1842 42.79M17.1274 46.2166C20.2294 40.1827 22.5868 35.849 25.367 35.0428C27.422 34.4469 29.2324 34.7945 29.4037 34.8193C30.945 35.0428 32.1193 34.8938 33 34.8193C30.7982 36.3837 30.2519 37.6512 30.2844 38.097C30.4312 40.1082 30.0581 41.3921 29.9174 41.7471C27.2018 48.6003 19.9358 47.5574 18.8349 46.6635C18.4679 44.0563 24.9266 38.2459 27.5688 37.8735C23.3413 41.5683 21.7217 44.0315 21.4037 44.8757M17.1274 46.2166C17.1664 45.0201 17.1836 43.8808 17.1842 42.79M17.1842 42.79C14.6882 41.1213 13.8685 40.2572 13.7706 40.0338M13.7706 40.0338C15.2385 37.7692 16.5596 28.711 6.87156 25.1354C5.91743 30.2008 7.23853 34.4469 13.0367 39.5868M13.7706 40.0338C13.6728 40.2324 13.3156 40.6893 12.6697 40.9277C12.2294 41.0902 11.1529 41.0766 10.7615 40.7787C10.6636 40.7042 10.189 40.2721 9.07339 39.1399C8.63303 39.2143 7.6055 39.3633 6.57798 38.9909C5.94787 38.7625 4.64526 37.501 4.15596 36.3837C3.86239 35.7132 2.99633 34.1489 1 32.6591C8.92661 30.4243 12.3321 33.6275 13.0367 39.5868M13.0367 39.5868C11.1284 40.7787 7.89908 34.8193 5.33028 34.0744" stroke="#333333" stroke-width="0.6"/>
</svg>
